<svg width="16" height="14" viewBox="0 0 16 14" fill="none" xmlns="http://www.w3.org/2000/svg">
    <path d="M15.9688 1.566C15.3812 1.82656 14.7499 2.00268 14.0872 2.08187C14.7636 1.67641 15.2831 1.03439 15.5277 0.269317C14.8946 0.644803 14.1935 0.917427 13.4472 1.06433C12.8497 0.427602 11.9982 0.0297852 11.0558 0.0297852C9.24653 0.0297852 7.77968 1.49658 7.77968 3.30586C7.77968 3.56263 7.80866 3.81268 7.86451 4.05249C5.14171 3.91582 2.72764 2.61156 1.1118 0.629395C0.829786 1.11326 0.668195 1.67604 0.668195 2.27646C0.668195 3.41311 1.24657 4.41591 2.12566 5.00341C1.58862 4.98639 1.08345 4.83902 0.641778 4.59362C0.641466 4.60728 0.641466 4.62101 0.641466 4.63482C0.641466 6.22216 1.77079 7.54626 3.26949 7.8473C2.99462 7.92212 2.70515 7.96229 2.40636 7.96229C2.19524 7.96229 1.99002 7.94171 1.78994 7.90341C2.20688 9.20493 3.41676 10.1523 4.8504 10.1786C3.72915 11.0574 2.31651 11.5811 0.781536 11.5811C0.517084 11.5811 0.256312 11.5656 0 11.5352C1.44986 12.4649 3.17196 13.0073 5.0221 13.0073C11.0482 13.0073 14.3435 8.01506 14.3435 3.68571C14.3435 3.54367 14.3403 3.40239 14.334 3.26185C14.9742 2.79997 15.5296 2.22297 15.9688 1.566Z" fill="white"/>
</svg>
