<svg width="18" height="11" viewBox="0 0 18 11" fill="none" xmlns="http://www.w3.org/2000/svg">
    <path d="M15.4591 6.46336C16.0549 7.04508 16.6838 7.5924 17.2182 8.23279C17.4542 8.51736 17.6777 8.81103 17.8487 9.14128C18.091 9.61076 17.8715 10.1274 17.4506 10.1554L14.8338 10.1542C14.1589 10.2102 13.6205 9.93854 13.1677 9.47709C12.8054 9.10806 12.4699 8.71531 12.1216 8.33382C11.9787 8.1779 11.8293 8.03119 11.6507 7.91522C11.2934 7.68334 10.9834 7.75434 10.7792 8.12691C10.5713 8.50586 10.5242 8.92546 10.5037 9.34778C10.4757 9.96397 10.2895 10.126 9.67049 10.1542C8.3477 10.2166 7.0923 10.0164 5.92608 9.34914C4.8979 8.76087 4.10058 7.93039 3.40661 6.9902C2.05543 5.15945 1.0207 3.14776 0.0907153 1.0797C-0.118616 0.61377 0.0344727 0.363659 0.548564 0.354807C1.40224 0.338223 2.25579 0.339403 3.11047 0.353626C3.45742 0.358702 3.68712 0.557705 3.82108 0.885482C4.28294 2.02113 4.84809 3.10161 5.55746 4.10311C5.74637 4.36975 5.939 4.63639 6.21331 4.82406C6.51677 5.03186 6.74782 4.96298 6.89058 4.62494C6.98117 4.41059 7.02083 4.17972 7.04125 3.95014C7.10889 3.16033 7.1178 2.37187 6.99917 1.58483C6.92635 1.09363 6.64968 0.775652 6.15955 0.682702C5.90944 0.635311 5.94668 0.542243 6.06778 0.399482C6.27811 0.153266 6.47593 0 6.87028 0H9.82765C10.2932 0.0918885 10.3966 0.301043 10.4604 0.769515L10.4629 4.05454C10.4578 4.2359 10.5535 4.77407 10.8802 4.89411C11.1416 4.97957 11.3139 4.77041 11.4708 4.60464C12.1789 3.85312 12.6842 2.96498 13.1357 2.04533C13.3361 1.64095 13.5083 1.22099 13.6753 0.801384C13.799 0.490013 13.9931 0.336807 14.3438 0.343593L17.1901 0.346131C17.2745 0.346131 17.3599 0.347371 17.4417 0.361357C17.9213 0.443095 18.0527 0.649416 17.9046 1.11777C17.6712 1.85258 17.217 2.46494 16.773 3.08012C16.2983 3.73692 15.7907 4.37123 15.32 5.03191C14.8875 5.63524 14.9218 5.93935 15.4591 6.46336Z" fill="white"/>
</svg>
